<svg viewBox="0 0 2800 2800" xmlns="http://www.w3.org/2000/svg">
  <path
    d="M1227.604 2281.437c-144.525-31.15-290.979-110.864-407.052-221.552l-101.573-96.858 25.5-285.224c38.87-139.824 103.849-248.35 205.756-343.683 50.416-47.16 97.833-85.747 105.38-85.747 7.557 0 43.136 22.454 79.093 49.907 158.776 121.2 371.799 121.2 530.585 0 35.96-27.453 71.547-49.907 79.094-49.907 7.56 0 54.96 38.587 105.373 85.747 101.907 95.333 166.88 203.859 205.76 343.683l25.507 285.224-101.574 96.858c-209.28 199.568-481.586 279.812-751.849 221.552zm37.573-999.157c-100.093-30.72-214.224-147.28-244.693-249.88-48.328-162.747-16.604-294.853 98.437-409.893 163.344-163.347 398.812-163.347 562.159 0 163.96 163.973 163.4 398.746-1.32 563.493-112.627 112.627-254.227 145.52-414.557 96.28z"
    fill="currentColor" />
</svg>
